<svg width="1920" height="1033" viewBox="0 0 1920 1033" fill="none" xmlns="http://www.w3.org/2000/svg">
<g filter="url(#filter0_d_2011_6)">
<rect x="1596" y="103" width="287" height="275" rx="50" fill="#5F82B9"/>
</g>
<g filter="url(#filter1_d_2011_6)">
<rect x="26" y="36" width="287" height="790" rx="50" fill="#5F82B9"/>
</g>
<g filter="url(#filter2_d_2011_6)">
<path d="M90 86C90 58.3858 112.386 36 140 36H1785C1812.61 36 1835 58.3858 1835 86V152.5C1835 180.114 1812.61 202.5 1785 202.5H1704C1676.39 202.5 1654 224.886 1654 252.5V348C1654 375.614 1676.39 398 1704 398H1785C1812.61 398 1835 420.386 1835 448V913C1835 940.614 1812.61 963 1785 963H140C112.386 963 90 940.614 90 913V821C90 793.386 112.386 771 140 771H186C213.614 771 236 748.614 236 721V654C236 626.386 213.614 604 186 604H140C112.386 604 90 581.614 90 554V86Z" fill="#6C92CF"/>
</g>
<defs>
<filter id="filter0_d_2011_6" x="1556" y="67" width="367" height="355" filterUnits="userSpaceOnUse" color-interpolation-filters="sRGB">
<feFlood flood-opacity="0" result="BackgroundImageFix"/>
<feColorMatrix in="SourceAlpha" type="matrix" values="0 0 0 0 0 0 0 0 0 0 0 0 0 0 0 0 0 0 127 0" result="hardAlpha"/>
<feMorphology radius="10" operator="dilate" in="SourceAlpha" result="effect1_dropShadow_2011_6"/>
<feOffset dy="4"/>
<feGaussianBlur stdDeviation="15"/>
<feComposite in2="hardAlpha" operator="out"/>
<feColorMatrix type="matrix" values="0 0 0 0 0 0 0 0 0 0 0 0 0 0 0 0 0 0 0.25 0"/>
<feBlend mode="normal" in2="BackgroundImageFix" result="effect1_dropShadow_2011_6"/>
<feBlend mode="normal" in="SourceGraphic" in2="effect1_dropShadow_2011_6" result="shape"/>
</filter>
<filter id="filter1_d_2011_6" x="-14" y="0" width="367" height="870" filterUnits="userSpaceOnUse" color-interpolation-filters="sRGB">
<feFlood flood-opacity="0" result="BackgroundImageFix"/>
<feColorMatrix in="SourceAlpha" type="matrix" values="0 0 0 0 0 0 0 0 0 0 0 0 0 0 0 0 0 0 127 0" result="hardAlpha"/>
<feMorphology radius="10" operator="dilate" in="SourceAlpha" result="effect1_dropShadow_2011_6"/>
<feOffset dy="4"/>
<feGaussianBlur stdDeviation="15"/>
<feComposite in2="hardAlpha" operator="out"/>
<feColorMatrix type="matrix" values="0 0 0 0 0 0 0 0 0 0 0 0 0 0 0 0 0 0 0.25 0"/>
<feBlend mode="normal" in2="BackgroundImageFix" result="effect1_dropShadow_2011_6"/>
<feBlend mode="normal" in="SourceGraphic" in2="effect1_dropShadow_2011_6" result="shape"/>
</filter>
<filter id="filter2_d_2011_6" x="40" y="6" width="1845" height="1027" filterUnits="userSpaceOnUse" color-interpolation-filters="sRGB">
<feFlood flood-opacity="0" result="BackgroundImageFix"/>
<feColorMatrix in="SourceAlpha" type="matrix" values="0 0 0 0 0 0 0 0 0 0 0 0 0 0 0 0 0 0 127 0" result="hardAlpha"/>
<feOffset dy="20"/>
<feGaussianBlur stdDeviation="25"/>
<feComposite in2="hardAlpha" operator="out"/>
<feColorMatrix type="matrix" values="0 0 0 0 0 0 0 0 0 0 0 0 0 0 0 0 0 0 0.25 0"/>
<feBlend mode="normal" in2="BackgroundImageFix" result="effect1_dropShadow_2011_6"/>
<feBlend mode="normal" in="SourceGraphic" in2="effect1_dropShadow_2011_6" result="shape"/>
</filter>
</defs>
</svg>
