<svg width="60" height="54" viewBox="0 0 60 54" fill="none" xmlns="http://www.w3.org/2000/svg">
<path d="M60 6.37711C58.2258 9.21138 56.1694 11.5142 53.8306 13.2856V15.1456C53.8306 19.5742 53.0645 24.0692 51.5323 28.6306C50 33.192 47.7621 37.3105 44.8185 40.9862C41.875 44.6619 38.2258 47.6733 33.871 50.0205C29.5161 52.3676 24.5161 53.5412 18.871 53.5412C15.3226 53.5412 11.9758 53.0097 8.83064 51.9469C5.68548 50.884 2.74194 49.3783 0 47.4298C0.483871 47.5183 0.967742 47.5848 1.45161 47.629C1.93548 47.6733 2.41935 47.6955 2.90323 47.6955C5.80645 47.6955 8.56855 47.164 11.1895 46.1012C13.8105 45.0383 16.1694 43.6212 18.2661 41.8498C15.5242 41.7612 13.125 40.8534 11.0685 39.1262C9.0121 37.3991 7.58065 35.1627 6.77419 32.417C7.17742 32.5941 7.56048 32.6827 7.92339 32.6827H9.07258C10.2016 32.6827 11.25 32.5498 12.2177 32.2841C9.39516 31.5756 7.05645 30.0034 5.20161 27.5677C3.34677 25.132 2.41935 22.2756 2.41935 18.9985V18.8656C3.30645 19.3085 4.19355 19.6849 5.08065 19.9949C5.96774 20.3049 6.93548 20.4599 7.98387 20.4599C6.37097 19.2199 5.06048 17.6256 4.05242 15.6771C3.04435 13.7285 2.54032 11.6028 2.54032 9.29995C2.54032 6.81997 3.10484 4.56141 4.23387 2.52427C7.29839 6.59854 11.0081 9.89781 15.3629 12.4221C19.7177 14.9464 24.4355 16.3413 29.5161 16.6071C29.2742 15.5442 29.1532 14.5256 29.1532 13.5514C29.1532 11.6914 29.4758 9.94209 30.121 8.30353C30.7661 6.66497 31.6532 5.22569 32.7823 3.98569C33.9113 2.7457 35.2218 1.77142 36.7137 1.06285C38.2056 0.354284 39.7984 0 41.4919 0C43.2661 0 44.9194 0.376427 46.4516 1.12928C47.9839 1.88213 49.3145 2.92284 50.4435 4.25141C51.8952 3.98569 53.2661 3.56498 54.5564 2.98927C55.8468 2.41356 57.0968 1.72713 58.3064 0.929995C57.3387 4.20712 55.5242 6.73139 52.8629 8.50281C55.4435 8.05996 57.8226 7.35139 60 6.37711Z" fill="white"/>
</svg>
